{"title":"Bunny and Cherry (2013) Telugu Movie DVDScr XviD - Exclusive","uid":9360468,"size":728760389,"categoryP":"video","categoryS":"movies","magnet":"?xt=urn:btih:7cb9c8781bcd7202330d116d7e0611e1eeed3af8&amp;dn=Bunny+and+Cherry+%282013%29+Telugu+Movie+DVDScr+XviD+-+Exclusive&amp;tr=udp%3A%2F%2Ftracker.openbittorrent.com%3A80&amp;tr=udp%3A%2F%2Fopen.demonii.com%3A1337&amp;tr=udp%3A%2F%2Ftracker.coppersurfer.tk%3A6969&amp;tr=udp%3A%2F%2Fexodus.desync.com%3A6969","seeders":0,"leechers":0,"uploader":"tykoon123","files":-1,"time":1387305599,"description":" &lt;a href=&quot;http://megaimg.com/images/34486915308157041426.jpg&quot; rel=&quot;nofollow&quot; target=&quot;_NEW&quot;&gt;http://megaimg.com/images/34486915308157041426.jpg&lt;/a&gt;\n\nInfo:\n\nFormat : AVI\nFormat/Info : Audio Video Interleave\nFile size : 695 MiB\nDuration : 1h 40mn\nOverall bit rate : 971 Kbps\n\nVideo\nID : 0\nFormat : MPEG-4 Visual\nFormat profile : Advanced Simple@L5\nFormat settings, BVOP : 1\nFormat settings, QPel : No\nFormat settings, GMC : No warppoints\nFormat settings, Matrix : Default (H.263)\nMuxing mode : Packed bitstream\nCodec ID : XVID\nCodec ID/Hint : XviD\nDuration : 1h 40mn\nBit rate : 869 Kbps\nWidth : 640 pixels\nHeight : 272 pixels\nDisplay aspect ratio : 2.35:1\nFrame rate : 23.976 fps\nColor space : YUV\nChroma subsampling : 4:2:0\nBit depth : 8 bits\nScan type : Progressive\nCompression mode : Lossy\nBits/(Pixel*Frame) : 0.208\nStream size : 622 MiB (90%)\nWriting library : XviD 1.2.1 (UTC 2008-12-04)\n\nAudio\nID : 1\nFormat : MPEG Audio\nFormat version : Version 1\nFormat profile : Layer 3\nMode : Joint stereo\nMode extension : MS Stereo\nCodec ID : 55\nCodec ID/Hint : MP3\nDuration : 1h 40mn\nBit rate mode : Constant\nBit rate : 96.0 Kbps\nChannel count : 2 channels\nSampling rate : 32.0 KHz\nCompression mode : Lossy\nStream size : 68.7 MiB (10%)\nAlignment : Aligned on interleaves\nInterleave, duration : 167 ms (4.00 video frames)\nInterleave, preload duration : 216 ms\nTitle : A Tc0 L2 2ch 48 224 DELAY 0ms\nWriting library : LAME3.99r\nEncoding settings : -m j -V 4 -q 2 -lowpass 15.1 -b 96\n\n\nScreens: &lt;a href=&quot;\nhttp://megaimg.com/images/28245485777905098488.jpg&quot; rel=&quot;nofollow&quot; target=&quot;_NEW&quot;&gt;\nhttp://megaimg.com/images/28245485777905098488.jpg&lt;/a&gt; &lt;a href=&quot;\nhttp://megaimg.com/images/84553164898710923797.jpg&quot; rel=&quot;nofollow&quot; target=&quot;_NEW&quot;&gt;\nhttp://megaimg.com/images/84553164898710923797.jpg&lt;/a&gt; &lt;a href=&quot;\nhttp://megaimg.com/images/99636573351566972994.jpg&quot; rel=&quot;nofollow&quot; target=&quot;_NEW&quot;&gt;\nhttp://megaimg.com/images/99636573351566972994.jpg&lt;/a&gt; &lt;a href=&quot;\nhttp://megaimg.com/images/64879651334277326725.jpg&quot; rel=&quot;nofollow&quot; target=&quot;_NEW&quot;&gt;\nhttp://megaimg.com/images/64879651334277326725.jpg&lt;/a&gt; &lt;a href=&quot;\nhttp://megaimg.com/images/17866344855535693762.jpg&quot; rel=&quot;nofollow&quot; target=&quot;_NEW&quot;&gt;\nhttp://megaimg.com/images/17866344855535693762.jpg&lt;/a&gt; &lt;a href=&quot;\nhttp://megaimg.com/images/15558938204814482538.jpg&quot; rel=&quot;nofollow&quot; target=&quot;_NEW&quot;&gt;\nhttp://megaimg.com/images/15558938204814482538.jpg&lt;/a&gt; &lt;a href=&quot;\nhttp://megaimg.com/images/73137644943768682316.jpg&quot; rel=&quot;nofollow&quot; target=&quot;_NEW&quot;&gt;\nhttp://megaimg.com/images/73137644943768682316.jpg&lt;/a&gt;\n\n\n\n\n\n\n\n","torrent":{"xt":"urn:btih:7cb9c8781bcd7202330d116d7e0611e1eeed3af8","amp;dn":"Bunny+and+Cherry+%282013%29+Telugu+Movie+DVDScr+XviD+-+Exclusive","amp;tr":["udp%3A%2F%2Ftracker.openbittorrent.com%3A80","udp%3A%2F%2Fopen.demonii.com%3A1337","udp%3A%2F%2Ftracker.coppersurfer.tk%3A6969","udp%3A%2F%2Fexodus.desync.com%3A6969"],"infoHash":"7cb9c8781bcd7202330d116d7e0611e1eeed3af8","infoHashBuffer":{"type":"Buffer","data":[124,185,200,120,27,205,114,2,51,13,17,109,126,6,17,225,238,237,58,248]},"announce":[],"urlList":[]}}